<svg id="svg" version="1.1" xmlns="http://www.w3.org/2000/svg" xmlns:xlink="http://www.w3.org/1999/xlink" width="400" height="400" viewBox="0, 0, 400,400"><g id="svgg"><path id="path0" d="M33.264 188.294 C 30.687 189.052,27.888 191.624,26.400 194.600 L 25.400 196.600 25.285 267.400 C 25.159 345.190,25.036 339.997,27.063 342.365 C 31.823 347.926,43.079 347.641,47.773 341.841 L 49.000 340.326 49.200 294.731 C 49.394 250.548,49.424 249.118,50.159 248.581 C 50.938 248.011,53.177 249.839,53.194 251.059 C 53.197 251.312,53.719 252.505,54.353 253.711 C 54.987 254.916,55.868 256.870,56.310 258.051 C 56.753 259.233,57.907 261.820,58.875 263.800 C 59.843 265.780,61.071 268.480,61.602 269.800 C 68.053 285.814,72.794 293.734,76.559 294.788 C 81.897 296.283,85.493 293.004,90.188 282.359 C 90.635 281.347,91.211 280.266,91.468 279.957 C 91.725 279.648,93.014 276.967,94.331 273.998 C 95.649 271.029,97.914 266.239,99.364 263.353 C 100.814 260.467,102.000 257.996,102.000 257.862 C 102.000 257.727,102.630 256.272,103.400 254.627 C 104.170 252.983,104.800 251.530,104.800 251.399 C 104.800 251.104,106.906 249.230,107.257 249.213 C 108.082 249.172,108.218 254.656,108.400 295.229 L 108.600 339.859 109.677 341.487 C 114.127 348.210,127.429 347.948,131.633 341.054 C 132.378 339.832,132.397 337.988,132.398 268.400 L 132.399 197.000 131.256 194.584 C 127.007 185.601,113.732 185.128,106.782 193.712 C 105.208 195.655,96.000 213.165,96.000 214.214 C 96.000 214.410,94.852 216.917,93.450 219.785 C 92.047 222.653,90.361 226.170,89.703 227.600 C 88.137 230.999,85.206 237.187,82.759 242.258 C 81.681 244.490,80.800 246.458,80.800 246.632 C 80.800 246.806,80.416 247.357,79.947 247.857 C 78.456 249.444,77.305 248.390,75.230 243.538 C 74.256 241.262,72.694 237.870,71.759 236.000 C 70.823 234.130,69.672 231.610,69.199 230.400 C 68.727 229.190,67.561 226.670,66.608 224.800 C 64.065 219.808,59.199 209.602,59.207 209.279 C 59.232 208.374,52.428 195.795,50.816 193.765 C 46.628 188.491,39.811 186.366,33.264 188.294 M169.000 187.872 C 165.348 188.693,161.543 191.703,160.806 194.354 C 160.358 195.968,160.225 336.285,160.669 338.975 C 161.679 345.092,172.729 348.588,179.262 344.858 C 185.182 341.478,184.798 343.931,184.813 309.451 C 184.827 277.362,184.702 278.943,187.257 278.565 C 187.996 278.456,194.360 278.329,201.400 278.283 C 215.376 278.192,215.266 278.210,217.767 275.737 C 222.239 271.317,221.370 260.051,216.322 256.999 C 215.083 256.250,214.090 256.187,200.514 256.000 C 188.059 255.828,185.939 255.712,185.400 255.172 C 184.846 254.617,184.774 252.199,184.793 234.574 L 184.813 214.605 185.815 213.603 L 186.818 212.600 212.109 212.400 C 231.289 212.248,237.611 212.079,238.273 211.700 C 244.784 207.974,244.752 191.320,238.228 188.357 C 236.682 187.655,171.986 187.202,169.000 187.872 M289.012 188.230 C 270.163 191.272,258.652 204.503,255.632 226.600 C 254.864 232.217,255.047 303.779,255.845 309.983 C 258.178 328.119,265.332 338.185,280.829 345.135 C 282.483 345.877,286.326 346.697,292.400 347.604 C 305.444 349.552,320.980 344.940,329.445 336.607 C 339.622 326.587,342.348 315.657,342.000 286.269 C 341.769 266.820,341.746 266.690,338.053 264.348 L 336.243 263.200 319.309 263.200 C 300.647 263.200,300.687 263.195,298.084 265.714 C 294.457 269.225,294.470 278.593,298.107 282.606 C 300.219 284.936,301.298 285.180,309.362 285.155 C 318.183 285.127,318.186 285.132,317.870 297.000 C 317.567 308.352,316.324 312.372,311.572 317.375 C 302.330 327.104,285.754 323.941,281.407 311.619 C 279.184 305.320,279.161 304.827,279.298 266.267 L 279.424 230.600 280.544 226.800 C 283.824 215.677,291.612 210.850,302.867 212.963 C 312.443 214.760,315.986 219.590,317.790 233.309 C 318.773 240.788,322.592 243.366,331.652 242.668 C 339.182 242.087,342.000 238.295,342.000 228.742 C 342.000 201.562,318.366 183.493,289.012 188.230 " stroke="none" fill="#fc6f16" fill-rule="evenodd"></path><path id="path1" d="M39.261 52.802 C 33.149 54.100,28.984 56.528,23.418 62.040 C 17.206 68.191,16.803 68.204,16.794 62.257 C 16.787 57.705,16.436 56.661,14.465 55.332 C 11.202 53.133,7.768 53.903,6.093 57.209 L 5.186 58.999 5.293 111.199 C 5.394 160.544,5.440 163.490,6.123 165.050 C 7.954 169.224,13.500 168.825,16.667 164.291 L 17.722 162.782 17.658 129.156 L 17.594 95.531 18.579 90.665 C 20.211 82.608,21.875 79.400,27.071 74.302 C 41.066 60.568,61.153 68.767,66.549 90.415 L 67.600 94.631 67.600 128.884 L 67.600 163.138 68.911 164.869 C 72.137 169.130,76.718 168.877,80.174 164.247 C 80.994 163.149,81.000 162.894,81.000 127.071 L 81.000 91.000 79.521 85.200 C 73.963 63.401,56.297 49.185,39.261 52.802 M132.600 52.649 C 124.367 53.906,115.480 57.475,112.985 60.527 C 112.413 61.227,111.650 62.160,111.291 62.600 C 108.504 66.008,112.566 74.048,116.567 73.044 C 117.894 72.711,122.760 70.457,124.000 69.601 C 125.973 68.239,132.732 66.800,137.154 66.800 C 146.030 66.800,152.155 69.941,155.876 76.400 C 156.446 77.390,157.343 78.879,157.868 79.710 C 159.409 82.143,162.003 93.528,161.998 97.835 C 161.991 103.656,161.368 104.000,150.827 104.000 C 146.420 104.000,141.597 104.176,140.107 104.392 C 138.618 104.608,135.780 104.987,133.800 105.235 C 120.450 106.906,108.985 113.951,106.331 122.114 C 106.101 122.821,105.437 124.570,104.856 126.000 C 103.820 128.550,103.800 128.777,103.802 137.800 L 103.805 147.000 105.170 150.953 C 107.879 158.794,114.103 165.571,120.400 167.539 C 126.395 169.411,127.342 169.600,130.753 169.600 C 135.236 169.600,140.964 168.338,144.155 166.648 C 145.450 165.961,146.980 165.149,147.555 164.841 C 151.603 162.678,155.964 158.886,159.570 154.393 L 160.941 152.686 161.670 153.587 C 162.270 154.328,162.400 155.216,162.400 158.581 C 162.400 166.742,168.074 170.872,172.957 166.266 C 175.293 164.064,175.250 164.896,175.081 125.291 C 174.920 87.726,174.850 86.075,173.240 81.892 C 173.006 81.283,172.549 79.642,172.225 78.246 C 171.566 75.404,168.239 68.647,165.702 65.000 C 159.398 55.936,145.366 50.700,132.600 52.649 M242.600 52.654 C 237.174 53.490,231.474 56.527,227.000 60.966 C 220.014 67.896,219.600 68.044,219.600 63.606 C 219.600 55.316,214.375 51.285,209.350 55.698 C 206.604 58.109,206.800 53.858,206.800 110.988 L 206.800 162.816 207.752 164.308 C 210.805 169.092,215.473 169.179,219.037 164.520 L 220.200 163.000 220.418 127.000 L 220.635 91.000 221.681 87.151 C 222.255 85.034,223.192 82.562,223.763 81.659 C 224.333 80.755,224.800 79.828,224.800 79.598 C 224.800 79.043,232.850 70.800,233.392 70.800 C 233.624 70.800,234.441 70.384,235.207 69.876 C 243.144 64.613,255.281 67.914,262.768 77.372 C 269.720 86.156,269.700 86.016,269.973 128.263 L 270.200 163.526 271.426 165.063 C 274.175 168.511,277.681 168.838,280.958 165.954 C 283.771 163.478,283.657 165.244,283.515 126.200 L 283.388 91.000 282.064 85.600 C 276.774 64.017,259.958 49.978,242.600 52.654 M341.400 52.959 C 331.869 54.802,324.015 60.486,316.677 70.851 C 315.645 72.309,314.800 73.617,314.800 73.759 C 314.800 73.900,314.378 74.687,313.863 75.508 C 312.706 77.349,310.252 84.737,309.419 88.883 C 308.357 94.174,308.517 128.149,309.626 132.533 C 311.084 138.301,312.684 143.040,313.713 144.641 C 314.265 145.498,314.934 146.889,315.200 147.731 C 316.234 151.010,323.556 159.343,328.552 162.928 C 344.723 174.530,363.839 170.583,377.380 152.846 C 381.132 147.932,383.900 141.649,386.035 133.200 C 387.069 129.112,387.199 92.700,386.198 87.853 C 381.442 64.825,361.275 49.117,341.400 52.959 M354.600 68.583 C 355.700 68.925,358.123 70.238,359.984 71.502 C 363.940 74.188,367.095 77.831,370.269 83.380 C 370.528 83.831,371.383 86.421,372.169 89.137 L 373.600 94.073 373.600 110.163 C 373.600 119.808,373.429 127.204,373.173 128.627 C 372.606 131.783,370.478 138.705,369.980 139.012 C 369.763 139.147,369.153 140.109,368.625 141.150 C 363.844 150.586,350.051 157.114,342.217 153.649 C 341.162 153.182,340.044 152.800,339.733 152.800 C 335.778 152.800,326.083 141.553,324.358 134.964 C 324.005 133.615,323.598 132.321,323.454 132.087 C 322.648 130.783,322.403 125.820,322.385 110.458 L 322.366 93.400 323.583 89.248 C 324.252 86.965,324.800 84.913,324.800 84.688 C 324.800 82.447,332.509 73.441,336.854 70.607 C 341.367 67.663,348.874 66.807,354.600 68.583 M159.599 116.123 C 163.259 117.372,162.892 133.321,159.044 140.223 C 150.819 154.977,131.847 160.465,121.665 151.036 C 113.724 143.683,115.710 125.939,125.085 120.469 C 127.635 118.981,128.406 118.744,136.628 116.918 C 142.004 115.724,156.919 115.208,159.599 116.123 " stroke="none" fill="#232d41" fill-rule="evenodd"></path><path id="path2" d="M0.000 200.000 L 0.000 400.000 200.000 400.000 L 400.000 400.000 400.000 200.000 L 400.000 0.000 200.000 0.000 L 0.000 0.000 0.000 200.000 M52.800 53.514 C 66.140 58.213,75.457 69.260,79.521 85.200 L 81.000 91.000 81.000 127.071 C 81.000 162.894,80.994 163.149,80.174 164.247 C 76.718 168.877,72.137 169.130,68.911 164.869 L 67.600 163.138 67.600 128.884 L 67.600 94.631 66.549 90.415 C 61.153 68.767,41.066 60.568,27.071 74.302 C 21.875 79.400,20.211 82.608,18.579 90.665 L 17.594 95.531 17.658 129.156 L 17.722 162.782 16.667 164.291 C 13.500 168.825,7.954 169.224,6.123 165.050 C 5.440 163.490,5.394 160.544,5.293 111.199 L 5.186 58.999 6.093 57.209 C 7.768 53.903,11.202 53.133,14.465 55.332 C 16.436 56.661,16.787 57.705,16.794 62.257 C 16.803 68.204,17.206 68.191,23.418 62.040 C 32.181 53.363,43.252 50.150,52.800 53.514 M148.600 53.534 C 153.968 55.019,158.763 57.709,162.917 61.564 C 165.855 64.291,171.218 73.901,172.225 78.246 C 172.549 79.642,173.006 81.283,173.240 81.892 C 174.850 86.075,174.920 87.726,175.081 125.291 C 175.250 164.896,175.293 164.064,172.957 166.266 C 168.074 170.872,162.400 166.742,162.400 158.581 C 162.400 155.216,162.270 154.328,161.670 153.587 L 160.941 152.686 159.570 154.393 C 155.964 158.886,151.603 162.678,147.555 164.841 C 146.980 165.149,145.450 165.961,144.155 166.648 C 140.964 168.338,135.236 169.600,130.753 169.600 C 127.342 169.600,126.395 169.411,120.400 167.539 C 114.103 165.571,107.879 158.794,105.170 150.953 L 103.805 147.000 103.802 137.800 C 103.800 128.777,103.820 128.550,104.856 126.000 C 105.437 124.570,106.101 122.821,106.331 122.114 C 108.985 113.951,120.450 106.906,133.800 105.235 C 135.780 104.987,138.618 104.608,140.107 104.392 C 141.597 104.176,146.420 104.000,150.827 104.000 C 161.368 104.000,161.991 103.656,161.998 97.835 C 162.003 93.528,159.409 82.143,157.868 79.710 C 157.343 78.879,156.446 77.390,155.876 76.400 C 152.155 69.941,146.030 66.800,137.154 66.800 C 132.732 66.800,125.973 68.239,124.000 69.601 C 122.760 70.457,117.894 72.711,116.567 73.044 C 112.566 74.048,108.504 66.008,111.291 62.600 C 111.650 62.160,112.413 61.227,112.985 60.527 C 115.480 57.475,124.367 53.906,132.600 52.649 C 135.537 52.200,145.839 52.771,148.600 53.534 M255.200 53.506 C 268.721 58.316,278.133 69.562,282.064 85.600 L 283.388 91.000 283.515 126.200 C 283.657 165.244,283.771 163.478,280.958 165.954 C 277.681 168.838,274.175 168.511,271.426 165.063 L 270.200 163.526 269.973 128.263 C 269.700 86.016,269.720 86.156,262.768 77.372 C 255.281 67.914,243.144 64.613,235.207 69.876 C 234.441 70.384,233.624 70.800,233.392 70.800 C 232.850 70.800,224.800 79.043,224.800 79.598 C 224.800 79.828,224.333 80.755,223.763 81.659 C 223.192 82.562,222.255 85.034,221.681 87.151 L 220.635 91.000 220.418 127.000 L 220.200 163.000 219.037 164.520 C 215.473 169.179,210.805 169.092,207.752 164.308 L 206.800 162.816 206.800 110.988 C 206.800 53.858,206.604 58.109,209.350 55.698 C 214.375 51.285,219.600 55.316,219.600 63.606 C 219.600 68.044,220.014 67.896,227.000 60.966 C 234.557 53.469,246.338 50.353,255.200 53.506 M357.800 53.995 C 372.210 59.037,382.872 71.749,386.198 87.853 C 387.199 92.700,387.069 129.112,386.035 133.200 C 383.900 141.649,381.132 147.932,377.380 152.846 C 363.839 170.583,344.723 174.530,328.552 162.928 C 323.556 159.343,316.234 151.010,315.200 147.731 C 314.934 146.889,314.265 145.498,313.713 144.641 C 312.684 143.040,311.084 138.301,309.626 132.533 C 308.517 128.149,308.357 94.174,309.419 88.883 C 310.252 84.737,312.706 77.349,313.863 75.508 C 314.378 74.687,314.800 73.900,314.800 73.759 C 314.800 73.335,318.404 68.378,320.666 65.690 C 330.312 54.229,345.132 49.561,357.800 53.995 M342.054 68.245 C 336.391 69.648,324.800 80.694,324.800 84.688 C 324.800 84.913,324.252 86.965,323.583 89.248 L 322.366 93.400 322.385 110.458 C 322.403 125.820,322.648 130.783,323.454 132.087 C 323.598 132.321,324.005 133.615,324.358 134.964 C 326.083 141.553,335.778 152.800,339.733 152.800 C 340.044 152.800,341.162 153.182,342.217 153.649 C 350.051 157.114,363.844 150.586,368.625 141.150 C 369.153 140.109,369.763 139.147,369.980 139.012 C 370.478 138.705,372.606 131.783,373.173 128.627 C 373.429 127.204,373.600 119.808,373.600 110.163 L 373.600 94.073 372.169 89.137 C 371.383 86.421,370.528 83.831,370.269 83.380 C 364.287 72.925,357.699 68.185,348.600 67.789 C 345.786 67.666,343.845 67.802,342.054 68.245 M141.228 116.222 C 139.154 116.504,137.084 116.817,136.628 116.918 C 128.406 118.744,127.635 118.981,125.085 120.469 C 119.701 123.610,116.800 129.248,116.800 136.569 C 116.800 155.789,135.701 162.517,151.428 148.895 C 159.487 141.915,161.605 137.402,161.888 126.600 C 162.103 118.404,161.767 116.863,159.599 116.123 C 157.746 115.490,146.159 115.553,141.228 116.222 M42.390 188.225 C 47.967 189.493,50.963 192.662,55.982 202.600 C 57.760 206.120,59.212 209.126,59.207 209.279 C 59.199 209.602,64.065 219.808,66.608 224.800 C 67.561 226.670,68.727 229.190,69.199 230.400 C 69.672 231.610,70.823 234.130,71.759 236.000 C 72.694 237.870,74.256 241.262,75.230 243.538 C 77.305 248.390,78.456 249.444,79.947 247.857 C 80.416 247.357,80.800 246.806,80.800 246.632 C 80.800 246.458,81.681 244.490,82.759 242.258 C 85.206 237.187,88.137 230.999,89.703 227.600 C 90.361 226.170,92.047 222.653,93.450 219.785 C 94.852 216.917,96.000 214.410,96.000 214.214 C 96.000 213.165,105.208 195.655,106.782 193.712 C 113.732 185.128,127.007 185.601,131.256 194.584 L 132.399 197.000 132.398 268.400 C 132.397 337.988,132.378 339.832,131.633 341.054 C 127.429 347.948,114.127 348.210,109.677 341.487 L 108.600 339.859 108.400 295.229 C 108.218 254.656,108.082 249.172,107.257 249.213 C 106.906 249.230,104.800 251.104,104.800 251.399 C 104.800 251.530,104.170 252.983,103.400 254.627 C 102.630 256.272,102.000 257.727,102.000 257.862 C 102.000 257.996,100.814 260.467,99.364 263.353 C 97.914 266.239,95.649 271.029,94.331 273.998 C 93.014 276.967,91.725 279.648,91.468 279.957 C 91.211 280.266,90.635 281.347,90.188 282.359 C 85.493 293.004,81.897 296.283,76.559 294.788 C 72.794 293.734,68.053 285.814,61.602 269.800 C 61.071 268.480,59.843 265.780,58.875 263.800 C 57.907 261.820,56.753 259.233,56.310 258.051 C 55.868 256.870,54.987 254.916,54.353 253.711 C 53.719 252.505,53.197 251.312,53.194 251.059 C 53.177 249.839,50.938 248.011,50.159 248.581 C 49.424 249.118,49.394 250.548,49.200 294.731 L 49.000 340.326 47.773 341.841 C 43.079 347.641,31.823 347.926,27.063 342.365 C 25.036 339.997,25.159 345.190,25.285 267.400 L 25.400 196.600 26.400 194.600 C 29.344 188.712,34.861 186.513,42.390 188.225 M238.228 188.357 C 244.752 191.320,244.784 207.974,238.273 211.700 C 237.611 212.079,231.289 212.248,212.109 212.400 L 186.818 212.600 185.815 213.603 L 184.813 214.605 184.793 234.574 C 184.774 252.199,184.846 254.617,185.400 255.172 C 185.939 255.712,188.059 255.828,200.514 256.000 C 214.090 256.187,215.083 256.250,216.322 256.999 C 221.370 260.051,222.239 271.317,217.767 275.737 C 215.266 278.210,215.376 278.192,201.400 278.283 C 194.360 278.329,187.996 278.456,187.257 278.565 C 184.702 278.943,184.827 277.362,184.813 309.451 C 184.798 343.931,185.182 341.478,179.262 344.858 C 172.729 348.588,161.679 345.092,160.669 338.975 C 160.225 336.285,160.358 195.968,160.806 194.354 C 161.543 191.703,165.348 188.693,169.000 187.872 C 171.986 187.202,236.682 187.655,238.228 188.357 M308.400 188.527 C 328.454 192.029,342.000 208.241,342.000 228.742 C 342.000 238.295,339.182 242.087,331.652 242.668 C 322.592 243.366,318.773 240.788,317.790 233.309 C 315.986 219.590,312.443 214.760,302.867 212.963 C 291.612 210.850,283.824 215.677,280.544 226.800 L 279.424 230.600 279.298 266.267 C 279.161 304.827,279.184 305.320,281.407 311.619 C 285.754 323.941,302.330 327.104,311.572 317.375 C 316.324 312.372,317.567 308.352,317.870 297.000 C 318.186 285.132,318.183 285.127,309.362 285.155 C 301.298 285.180,300.219 284.936,298.107 282.606 C 294.470 278.593,294.457 269.225,298.084 265.714 C 300.687 263.195,300.647 263.200,319.309 263.200 L 336.243 263.200 338.053 264.348 C 341.746 266.690,341.769 266.820,342.000 286.269 C 342.245 306.910,341.928 310.233,338.617 321.775 C 333.656 339.069,312.904 350.666,292.400 347.604 C 286.326 346.697,282.483 345.877,280.829 345.135 C 265.332 338.185,258.178 328.119,255.845 309.983 C 255.047 303.779,254.864 232.217,255.632 226.600 C 259.589 197.644,279.274 183.442,308.400 188.527 " stroke="none" fill="#fbfbfa" fill-rule="evenodd"></path></g></svg>